<svg id="Layer_1" data-name="Layer 1" xmlns="http://www.w3.org/2000/svg" viewBox="0 0 818.68 384.13"><defs><style>.cls-1{fill:#f7941d;}.cls-2{font-size:296.47px;fill:#fff;font-family:Poppins-Regular, Poppins;letter-spacing:0.01em;}</style></defs><path class="cls-1" d="M308,124.79a221.19,221.19,0,0,0-150.61-3.1A227.21,227.21,0,0,0,90.48,158a220,220,0,0,0-50.7,56.52c-13.86,22.18-24.26,47.11-28.48,73A179.3,179.3,0,0,0,50.22,431.54a176.74,176.74,0,0,0,60.15,47,156.5,156.5,0,0,0,38.19,12.9,144.21,144.21,0,0,0,38.9,2.15A145,145,0,0,0,308,408.77,125.74,125.74,0,0,0,318.67,369,117.38,117.38,0,0,0,275.1,267.28c-21.16-16.71-47.85-26.86-75.06-23.9a95.2,95.2,0,0,0-67.32,38.24c-16.21,21.5-22.38,50.13-13.3,75.85A78.49,78.49,0,0,0,141,390.05c10.22,9.07,23.11,16.1,36.73,18.14a65.3,65.3,0,0,0,40.12-6.55,63.11,63.11,0,0,0,27.54-28.51c6.08-12.85,7.65-27.56,2.77-41.11-4.72-13.09-14.35-24.39-27.12-30.21a45,45,0,0,0-21.52-4.44,44.49,44.49,0,0,0-20.14,6.13c-12.25,7.36-21.24,21.31-20.67,35.87a36.1,36.1,0,0,0,6.38,19.45,38.16,38.16,0,0,0,17.55,13.58c3.65,1.45,8.39-1.58,9.22-5.24,1-4.32-1.32-7.67-5.24-9.22-1.54-.61,1.2.58.23.1-.35-.18-.72-.34-1.08-.52-.63-.32-1.26-.67-1.87-1s-1.19-.74-1.76-1.15c-.21-.15-1.44-.79-.36-.25s-.4-.36-.66-.6a28.46,28.46,0,0,1-2.86-3,4.87,4.87,0,0,0-.58-.71c1.2.92.65.9.23.24s-.93-1.38-1.34-2.1-.73-1.32-1.06-2a4.76,4.76,0,0,0-.38-.82c.72.8.5,1.29.24.54a34.42,34.42,0,0,1-1.35-4.55c-.07-.37-.13-.75-.21-1.12-.14-.69.22-.79.08.64a19.62,19.62,0,0,0-.18-2.28c-.06-1.48.37-3.17.19-4.61,0,.16-.33,1.87-.06.61.08-.39.14-.78.22-1.16.15-.7.33-1.39.53-2.07s.51-1.53.78-2.29c.16-.45.63-1.15-.2.44.22-.43.39-.89.6-1.32A34.53,34.53,0,0,1,178,325q.59-.88,1.2-1.74c.93-1.3-.86,1-.18.23.3-.36.59-.72.9-1.07a34.66,34.66,0,0,1,3.07-3.11c.51-.46,1.06-.87,1.57-1.33.77-.69-1.54,1.09-.25.2.38-.25.74-.53,1.12-.78a36.63,36.63,0,0,1,3.52-2.09,11,11,0,0,0,2-1c-.82.72-1.26.51-.53.23.42-.16.84-.33,1.27-.48a37.15,37.15,0,0,1,4.15-1.2c.67-.15,1.34-.26,2-.39,1.57-.31-1.47.12-.41,0,.54,0,1.07-.12,1.6-.16a35.93,35.93,0,0,1,4.15-.07c.7,0,1.39.08,2.09.14s1.65.35-.37-.07c.46.1.93.15,1.39.23a36.82,36.82,0,0,1,4.17,1c.78.24,1.54.51,2.3.8-.06,0,.9.33.91.36-1-.44-1.19-.5-.45-.17l.66.3q2.06,1,4,2.14c.54.32,1.07.66,1.6,1,.35.23,1.91,1.65,2.31,1.63-.09,0-1.43-1.16-.41-.32l.9.75q.8.68,1.56,1.38a43.58,43.58,0,0,1,3.21,3.31,10.1,10.1,0,0,0,1.47,1.76c-.11-.07-1.08-1.46-.34-.43l.67.93c.87,1.25,1.68,2.53,2.43,3.86s1.33,2.56,1.93,3.87c.31.65-.06.7-.22-.53a5.84,5.84,0,0,0,.42,1.06c.29.78.57,1.57.82,2.36.41,1.31.76,2.63,1,4,.17.75.31,1.5.43,2.25a8.46,8.46,0,0,0,.14.9c-.61-2-.11-.82,0-.17a44.78,44.78,0,0,1,0,9.26c0,.31-.09.62-.11.93.16-2,.15-1.06.07-.59-.14.78-.27,1.56-.43,2.33a46,46,0,0,1-1.25,4.64c-.25.77-.53,1.54-.82,2.3l-.36.91c-.53,1.33.17-.45.18-.44s-1.93,4-2.11,4.33q-1.14,2.1-2.44,4.08L227.52,374c-.28.38-.56.75-.83,1.14-.85,1.17,1-1.24,0,0a60.71,60.71,0,0,1-6,6.41c-.56.52-1.14,1-1.73,1.52l-.7.58c-.14.12-1.36,1.06-.32.27s-.19.13-.34.24l-.74.54c-.68.48-1.38,1-2.08,1.4a63.25,63.25,0,0,1-7.81,4.22c-1.15.53.4-.19.53-.22a6.76,6.76,0,0,0-1.05.42c-.64.25-1.28.49-1.93.71-1.43.5-2.89.95-4.36,1.33s-2.81.68-4.24.93c-.66.12-1.38.16-2,.33,1.88-.51,1-.12.4-.06l-1.61.16a56.07,56.07,0,0,1-8.79.05c-.78-.06-1.55-.14-2.33-.22-.47-.05-1.4-.26.59.09-.31-.06-.62-.09-.93-.14-1.56-.25-3.12-.56-4.66-.94s-3.1-.84-4.63-1.35c-.61-.21-1.23-.43-1.84-.66s-.91-.36-1.37-.54c-1.38-.53,1.46.66,0,0a79.45,79.45,0,0,1-8.11-4.16q-1.92-1.15-3.77-2.43c-.58-.39-1.15-.8-1.72-1.22l-.93-.7c-.57-.42,1.37,1.09,0,0a69.78,69.78,0,0,1-6.65-6.09c-1-1-1.88-2-2.78-3.06-.49-.58-1-1.17-1.45-1.76-.32-.39-.61-1.07.32.43-.23-.38-.55-.73-.82-1.09a71.61,71.61,0,0,1-4.91-7.66c-.67-1.2-1.29-2.41-1.88-3.64-.3-.61-.58-1.23-.86-1.85-.15-.35-.28-.71-.46-1,1,1.86.26.59.07.11a71.59,71.59,0,0,1-2.69-8.21c-.39-1.47-.72-2.95-1-4.45q-.18-.88-.33-1.8l-.21-1.35c-.23-1.45.19,1.75,0,.18a79.7,79.7,0,0,1-.5-8.73c0-1.47.06-2.94.16-4.41.05-.7.11-1.39.18-2.09,0-.31.06-.62.1-.93s.07-.62.11-.93c-.16,1.14-.2,1.42-.11.83a75.56,75.56,0,0,1,1.91-9.06c.39-1.39.83-2.78,1.3-4.15.27-.77.55-1.53.85-2.29.16-.41.54-2.12.91-2.27-.44.18-.63,1.47-.08.22.16-.37.33-.73.5-1.1.3-.66.61-1.32.93-2q1.05-2.16,2.21-4.25a89.13,89.13,0,0,1,4.91-7.82c.45-.64.91-1.27,1.38-1.9.18-.25.38-.49.56-.75-1.07,1.54-.59.76-.31.41,1-1.21,2-2.41,3-3.57a85.64,85.64,0,0,1,6.45-6.61c1-.94,2.05-1.85,3.11-2.73.58-.49,1.17-1,1.77-1.45.23-.19.51-.37.72-.57-1.43,1.39-.5.39-.06.07q3.57-2.67,7.39-5t7.84-4.17l1.86-.85c.34-.15.72-.27,1.05-.45-.12.06-1.71.69-.54.23,1.42-.56,2.83-1.11,4.26-1.62,2.8-1,5.65-1.81,8.53-2.5,1.4-.34,2.82-.65,4.24-.92l2-.35c.64-.11,3.42-.32,1-.17,2.92-.18,5.79-.61,8.72-.69a87.12,87.12,0,0,1,9.28.21c1.4.11,2.8.26,4.2.43s-.48,0-.6-.08a9.27,9.27,0,0,0,1.4.21c.78.12,1.55.25,2.33.4a88.49,88.49,0,0,1,9.06,2.19c3,.91,6,2,9,3.19,1.33.54-.43-.19-.44-.18a7.09,7.09,0,0,1,1.12.48c.66.29,1.33.59,2,.9q2.19,1,4.33,2.13a109,109,0,0,1,15.61,9.84,8.69,8.69,0,0,0,.75.57c-1.72-1-.49-.37-.05,0s1,.78,1.45,1.17c1.19,1,2.37,2,3.52,3q3.44,3.09,6.61,6.46,3,3.18,5.71,6.59c.24.3.47.61.71.9.67.82-1.14-1.51-.19-.25l1.09,1.47q1.42,1.94,2.76,3.93a111.9,111.9,0,0,1,8.56,15.31l.93,2.08c.11.27.22.56.36.83-.9-1.8-.34-.81-.15-.32.56,1.42,1.12,2.83,1.64,4.26,1,2.78,1.9,5.61,2.67,8.47s1.41,5.62,2,8.46c.29,1.5.54,3,.76,4.52.05.3.07.61.13.91-.39-2-.14-1.12-.09-.63.11.91.22,1.83.31,2.74a109.2,109.2,0,0,1,.32,17.81c-.1,1.47-.22,2.95-.37,4.42l-.24,2.1c-.08.6-.44,1.57.05-.36a13.52,13.52,0,0,0-.21,1.4q-.67,4.47-1.73,8.86a129.26,129.26,0,0,1-5.92,18c.82-2.07-.1.2-.31.66-.29.67-.59,1.33-.89,2q-1,2.21-2.1,4.35-2.16,4.28-4.6,8.39-2.29,3.85-4.84,7.56c-.8,1.16-1.62,2.31-2.45,3.45-.46.63-.93,1.25-1.4,1.87-.77,1,.21-.3.32-.4a9.64,9.64,0,0,0-1,1.28,136.45,136.45,0,0,1-12,13.2q-3.22,3.1-6.65,6-1.67,1.41-3.37,2.76l-.72.57c-1.24,1,1.1-.82.25-.2-.67.5-1.34,1-2,1.51a137.37,137.37,0,0,1-15,9.59c-2.52,1.4-5.09,2.71-7.7,4-1.23.58-2.47,1.15-3.72,1.7-.41.18-.86.33-1.26.54.12-.06,1.71-.71.53-.23l-2.32.94a139.25,139.25,0,0,1-16.69,5.38q-4.32,1.1-8.7,1.9c-1.43.27-2.86.51-4.29.73-.36.06-2.63.35-1.27.19s-.16,0-.37.05l-1.37.16a136.41,136.41,0,0,1-18,.89q-4.43-.08-8.84-.43c-1.4-.12-2.8-.25-4.19-.41-.78-.09-1.56-.2-2.33-.28,2.47.27-.45-.07-1-.16a138.49,138.49,0,0,1-17.9-4c-3-.89-6-1.89-9-3-1.46-.54-2.9-1.1-4.35-1.68l-2-.84c-1-.42,1.74.76.21.09l-1.34-.58a172.32,172.32,0,0,1-32-18.4,36.3,36.3,0,0,0-3.56-2.67c.12.06,1.4,1.09.4.31l-.73-.58-2.19-1.76Q81.26,442,78,439a172.05,172.05,0,0,1-12.68-12.8q-2.91-3.27-5.64-6.67c-.48-.59-1-1.2-1.43-1.8-.78-1,.26.32.33.44-.2-.32-.47-.61-.69-.92q-1.46-1.91-2.86-3.87a172.73,172.73,0,0,1-17.41-30.47c-.31-.7-.61-1.39-.91-2.09-.19-.43-.42-1.29.22.53-.13-.36-.29-.7-.44-1.05-.57-1.41-1.13-2.82-1.67-4.24q-1.59-4.17-3-8.4a169.9,169.9,0,0,1-4.59-17.22q-.9-4.26-1.59-8.56c-.12-.75-.23-1.51-.34-2.27-.05-.3-.09-.6-.13-.91-.19-1.28.07.51.08.63-.14-1.6-.4-3.2-.57-4.8a172.2,172.2,0,0,1,.08-35.93l.24-2.1.15-1.17c.16-1.3-.06.46-.08.59.28-1.54.44-3.12.7-4.67q.77-4.69,1.8-9.33a172.72,172.72,0,0,1,5-17.87q1.53-4.53,3.3-9l.82-2,.47-1.13c.3-.73-.12-.59-.19.44a9.18,9.18,0,0,1,1-2.24l1-2.23a214.51,214.51,0,0,1,18.18-32.53c1.67-2.47,3.39-4.89,5.17-7.29.46-.62.93-1.25,1.41-1.87l.56-.75c.78-1-.21.31-.31.41a37.08,37.08,0,0,0,2.91-3.66q5.7-7,12-13.56t13-12.41q3.28-2.88,6.69-5.62l1.79-1.43.72-.57.33-.26c-1,.81.18-.14.33-.25l.73-.55c.73-.55,1.46-1.1,2.2-1.64a215.57,215.57,0,0,1,29.91-18.44q4-2,8-3.87c1.31-.6,2.63-1.19,3.95-1.76l.84-.36c.18-.08,1.59-.68.36-.16s.19-.08.37-.15l1.27-.52q8.24-3.36,16.73-6a215.49,215.49,0,0,1,34.32-7.78c.21,0,1.74-.22.37,0s.16,0,.37,0l2.05-.25c1.53-.18,3.05-.35,4.58-.49q4.47-.44,9-.69c5.94-.32,11.9-.4,17.84-.23s12,.6,18,1.28l2.34.28.93.12c1.69.21-1.82-.26-.13,0s3.12.45,4.67.7q4.45.72,8.87,1.62A217.85,217.85,0,0,1,304,139.25c3.67,1.41,8.39-1.56,9.23-5.24,1-4.29-1.31-7.71-5.24-9.22Z" transform="translate(-8.9 -109.97)"/><text class="cls-2" transform="translate(320.37 278.92) scale(0.58)">eriglo</text></svg>